<?xml version="1.0" standalone="no"?>
<!DOCTYPE svg PUBLIC "-//W3C//DTD SVG 20010904//EN"
 "http://www.w3.org/TR/2001/REC-SVG-20010904/DTD/svg10.dtd">
<svg version="1.0" xmlns="http://www.w3.org/2000/svg"
 width="512.000000pt" height="512.000000pt" viewBox="0 0 512.000000 512.000000"
 preserveAspectRatio="xMidYMid meet">

<g transform="translate(0.000000,512.000000) scale(0.100000,-0.100000)"
fill="#000000" stroke="none">
<path d="M2370 5113 c-379 -36 -661 -116 -980 -278 -378 -193 -717 -497 -965
-865 -104 -156 -232 -419 -294 -605 -49 -150 -89 -321 -113 -490 -17 -118 -17
-512 0 -630 42 -295 120 -553 242 -800 137 -280 272 -468 494 -691 221 -220
412 -357 681 -489 188 -92 309 -137 500 -185 500 -126 1002 -102 1490 71 149
53 407 182 540 271 365 243 667 578 866 963 181 348 271 694 286 1090 15 426
-73 832 -263 1214 -124 250 -263 447 -458 648 -216 224 -428 378 -711 518
-296 146 -572 225 -900 255 -102 9 -333 11 -415 3z m-816 -1155 c31 -32 38
-58 261 -995 l229 -963 675 0 676 0 220 652 c214 634 221 653 254 675 80 54
181 2 181 -93 0 -27 -77 -271 -229 -722 -127 -374 -236 -690 -243 -701 -33
-53 -14 -52 -877 -49 l-801 3 -31 31 c-30 30 -38 62 -254 968 -123 515 -226
947 -229 960 -6 23 -9 24 -123 28 -157 5 -193 29 -193 129 0 33 7 48 34 75
l34 34 192 0 192 0 32 -32z m1779 -452 c18 -7 41 -25 50 -39 21 -33 22 -105 1
-135 -36 -52 -32 -52 -609 -52 -488 0 -540 2 -566 17 -38 23 -63 76 -56 120 7
41 21 59 62 85 28 17 64 18 558 18 423 0 534 -3 560 -14z m-1235 -2022 c151
-63 185 -274 60 -379 -118 -100 -295 -60 -359 80 -66 144 45 315 203 315 32 0
75 -7 96 -16z m1360 0 c152 -63 185 -274 60 -379 -47 -40 -89 -55 -150 -55
-169 1 -278 176 -203 327 23 46 56 77 120 112 30 16 130 13 173 -5z"/>
</g>
</svg>
